<svg width="80" height="80" viewBox="0 0 80 80" fill="none" xmlns="http://www.w3.org/2000/svg">
<g id="chart-bar">
<path id="Vector" d="M52 50H58C59 50 60 49 60 48V27C60 26 59 25 58 25H52C51 25 50 26 50 27V48C50 49 51 50 52 50ZM67 50H73C74 50 75 49 75 48V12C75 11 74 10 73 10H67C66 10 65 11 65 12V48C65 49 66 50 67 50ZM22 50H28C29 50 30 49 30 48V37C30 36 29 35 28 35H22C21 35 20 36 20 37V48C20 49 21 50 22 50ZM37 50H43C44 50 45 49 45 48V17C45 16 44 15 43 15H37C36 15 35 16 35 17V48C35 49 36 50 37 50ZM77.5 60H10V12.5C10 11.1187 8.88125 10 7.5 10H2.5C1.11875 10 0 11.1187 0 12.5V65C0 67.7609 2.23906 70 5 70H77.5C78.8812 70 80 68.8812 80 67.5V62.5C80 61.1188 78.8812 60 77.5 60Z" fill="#F86F03"/>
</g>
</svg>
