<svg width="80" height="80" viewBox="0 0 80 80" fill="none" xmlns="http://www.w3.org/2000/svg">
<g id="mobile-alt">
<path id="Vector" d="M57.5 0H22.5C18.3594 0 15 3.35938 15 7.5V72.5C15 76.6406 18.3594 80 22.5 80H57.5C61.6406 80 65 76.6406 65 72.5V7.5C65 3.35938 61.6406 0 57.5 0ZM40 75C37.2344 75 35 72.7656 35 70C35 67.2344 37.2344 65 40 65C42.7656 65 45 67.2344 45 70C45 72.7656 42.7656 75 40 75ZM57.5 58.125C57.5 59.1562 56.6562 60 55.625 60H24.375C23.3438 60 22.5 59.1562 22.5 58.125V9.375C22.5 8.34375 23.3438 7.5 24.375 7.5H55.625C56.6562 7.5 57.5 8.34375 57.5 9.375V58.125Z" fill="#F86F03"/>
</g>
</svg>
